<?xml version="1.0" encoding="UTF-8"?>
<svg width="354.33" height="223.85" enable-background="new 33.9819 113.1217 2523.0447 1389.4792" version="1.1" viewBox="33.9819 113.1217 354.32993 223.85105" xmlns="http://www.w3.org/2000/svg">
 <path transform="translate(2.6147e-7 -1.1572e-6)" d="m126.78 113.16-2e-3 1e-3c-3.1013 0.51288-3.8224 1.6083-3.1584 4.8394-4.3014-0.32837-10.787-2.4742-12.978 2.7532 5.5267 0.48418 7.9963 3.3253 10.483 9.0888-0.25806 0.0497-0.514 0.24369-0.77826 0.13006-9.7361-3.3078-31.467 9.8493-17.771 18.516-0.0186 0.34566-0.0351 0.69347-0.0454 1.0415l-0.18595-0.097c-37.5 13.028-41.509 43.218-17.938 45.676 0.47484-0.071 0.75808-0.2774 0.83399-0.2772-6.0534 14.134-25.223 6.7022-28.288 2.1617-3.3419-2.8221-8.9334-9.6268-12.457-11.177-1.2974-0.8309-7.1955-3.8174-9.7651 1.6831-3.072 6.8593 4.725 13.888 6.3359 17.515-0.82967 6.5556 4.8102 10.095 6.8397 13.653-7.9007 7.4435 4.7438 27.13 22.464 22.112l-0.0104 0.2486-3e-3 0.2486-0.18988 0.019c-2.7975 16.314 14.082 23.51 26.69 13.942l0.18988-0.028c0.12613-0.1259 2.0892 1.6402 3.7037 2.0621 14.38 1.0368 27.842 8.3877 41.9 8.4633 14.736-3.1933 33.004-8.4897 43.315-18.324 8.3543-0.4093 17.192-4.3096 24.078-9.304 15.856-12.982 34.858-27.938 46.963-42.266 2.6694-2.474 5.1488-5.2487 7.43-8.1536 0.29728-0.035 0.5759-0.1634 0.87321-0.2415 4.8511 1.0225 17.471 1.5198 22.245-4.8818 0.1032-0.054 0.30975-0.1657 0.41505-0.2225 5.2646-6.0568 18.287-9.173 24.109-10.41 7.3683-0.977 13.46-4.3443 16.924-4.871 0.8649-0.2636 1.4312-0.1846 2.0193-0.1306-0.0575 0.1254 0.079 0.333 0.0215 0.4561-6e-3 0.1373-0.019 0.4144-0.0246 0.5517-0.35918 0.064-0.57387 0.7907-0.33435 1.1411l-0.0518 0.1634c-0.24564 0.6582-0.51195 1.4228-0.36126 2.1402-2.0966 8.145-0.56206 18.16-4.2658 24.484-2.6229-7.0661-6.9307-19.186-13-17.704-5.8939 1.5852-8.7545 6.4561-11.324 11.596-8.4234 15.55 7.5016 31.508 16.799 25.434 0.49754 0.01 1.0488-0.026 0.86707 0.7387-1.5785 4.4825-3.836 8.2791-6.1827 12.375-1.2407 1.456-2.2794 3.2435-3.3281 4.9196-1.8704 3.2884-3.8153 6.624-5.1345 10.232 0.0471-0.022 0.0915-0.047 0.13332-0.077-0.0419 0.03-0.0861 0.056-0.13332 0.077-1.2366 1.3068-2.7994 2.1095-4.1083 3.3097-5.1902 4.1241-9.7548 9.4057-12.996 15.627-0.15278 0.367-0.53056 1.2856-0.0495 1.3755 0.0248 0.6934 1.2524 0.3199 1.7173 0.4094 0.84023 0.6085 1.895 0.523 2.7126 1.2073-0.0887 0.5019-0.41495 0.819-0.85469 0.8285-7.4236 7.6003-17.719 38.012 0.57605 47.749 0.0504 0.01 0.0947 0.01 0.13302 0.01-0.0383 0-0.0826-0.01-0.13302-0.01-3e-3 0.4522 0.67304 0.4119 0.58837 0.9564-0.095 0.066-0.28698 0.2037-0.38197 0.2723 9.0164 34.061 69.192 21.67 67.972 6.1763 15.409-3.7995 21.068-29.065 15.191-37.212 0.01-0.1207 0.017-0.3622 0.023-0.483 3.3332-0.4397 8.1392-6.194 9.5193-8.7477 3.8193-7.4739 4.8213-16.948 2.1987-24.382l-0.1692-0.088c-2.1707-5.2987-5.9368-9.7327-9.9303-12.484-0.2973-0.8381-1.2531-1.1247-1.6042-1.9082-0.039-0.528-0.5738-0.6013-0.7947-0.9944-0.4563-1.0369-0.9001-2.1046-0.9559-3.2788 0.1631-0.4806 0.1712-1.1129-0.01-1.5888 0.1362-0.883 0.2519-1.7706 0.2994-2.6655-0.5368 0.5208-0.6505 1.6051-0.6525 2.4195l-0.1631-0.047c-0.1631 1.759-0.6729 3.504-0.01 5.218-0.026 0.6842 1.3007 2.2656 0.1445 2.4645-5.5716-1.5954-13.086-3.8249-20.977 1.8607-0.29108-0.1018-0.56351-0.3101-0.87322-0.2746-1.8168-0.3485-4.5571-19.018-5.9704-18.717-7e-3 0.5232-8e-3 0.4827 0 0 0.0847-0.4381-0.0101-0.6983-0.28671-0.7789-0.0867-0.303-0.06-0.6037 0.0556-0.8902 9.4015-2.2051 15.5-13.437 18.806-22.962 0.8265-2.2774-0.155-4.4656-1.9136-5.6086-1.9327-0.7776-3.2165-1.735-5.023-2.7602-0.40354-1.1871-1.0248-1.2228-2.2071-1.2714-2.1553-0.3078-4.0919 1.1624-5.857 2.3816-3.4288 2.9369-5.932 5.9707-8.9351 8.776-2.993-10.767 2.5674-19.615-0.5359-29.51 0.0929-0.2368 0.0474-0.4476-0.13836-0.6346 0.0556-0.069 0.16945-0.206 0.22517-0.2746l-0.19826-0.042c-0.0499-0.01-0.0996-0.011-0.14898-0.014 0.0493 0 0.0989 0.01 0.14898 0.014-6e-3 -0.1586-0.0126-0.4781-0.0164-0.6391 0.3221-0.1586 0.91264-0.068 1.0427-0.4875-0.0952-0.012-0.18935-0.021-0.28254-0.026 0.0932 0.01 0.18732 0.013 0.28254 0.025 15.501-2.7338 26.915-5.0085 36.713-7.2727 0.3097-0.066 0.9395 0.1327 1.0592-0.2816 1.0653-0.026 2.3865 0 3.2041-0.7907 0.031-0.1018 0.097-0.3007 0.1299-0.4002 0.671-0.2888-1.4389-0.4947-1.4431-0.014-0.1012 0-0.3055 0.01-0.4067 0.01v0.22c-28.236-3.0117-70.496 3.2627-93.922 5.2581 0.0289-0.3835-0.42947-0.3481-0.638-0.476-0.35506-0.5847-1.0549-0.8497-1.5999-1.1882 0.0268-0.1207 0.0826-0.3647 0.11147-0.4878 0.38399-1.2666 0.96427-2.4599 1.0902-3.8188-0.75976 0.7245-1.1026 2.0408-1.6249 3.0233-0.062 0.08-0.18787 0.2369-0.24981 0.315-0.1507 0-0.45005-0.017-0.59875-0.021-0.46037 0.1184-0.0101-0.883-0.51389-0.7528-6.3549-6.6948-11.367-15.684-16.904-22.834-0.76592-0.48061-1.7034-0.88767-2.5518-0.703-0.32622 0.56581-1.1768 0.13028-1.2264 0.92812-0.45215-9e-3 -0.74512 0.58935-0.98048 0.97051-0.61728-0.0497-1.2077 0.53518-1.8147 0.20136l0.0104 0.19879c-0.10323-4e-3 -0.30735-0.0165-0.41057-0.0212-0.48716-0.0591-0.93736 0.17515-1.3935 0.31955-0.12389-0.81442 0.76399-1.1316 1.2017-1.4962 1.5815-0.93988 3.173-1.9462 4.9217-2.4221l0.0414-0.19879c-2.2359 0.28884-4.3976 1.2384-6.3919 2.4032-0.0165-0.20124-0.0494-0.60614-0.0658-0.80737 0.22088-0.10891 0.46225-0.206 0.59233-0.46405 0.86708 0.14914 1.3358-0.81457 1.9738-1.2384 0.0743-0.045 0.22088-0.1324 0.2952-0.17502 0.43765-0.22728 1.0673-0.45711 1.3047-0.92587 0.0557-0.045 0.16941-0.13485 0.22516-0.17985 0.42942-0.15862 0.99926-0.29356 1.249-0.73863 0.23533 0.0165 0.44181-0.0638 0.62141-0.24376 1.1768-0.0947 2.0354-1.1934 3.206-1.2762 0.83199-0.71733 2.2359-0.381 2.7851-1.5434-0.63586 0.0118-1.2306 0.0663-1.8189 0.30541-40.72 5.1863-41.748 43.897-25.868 53.926 0.22709 0.5777-0.512 0.8308-0.31587 1.3588-0.4604 0.4806-0.92495 0.954-1.4596 1.3257-7.3256 9.5312-28.867 22.832-35.871 23.175-5.1687 1.1029-7.9588-0.8146-11.947-4.3942-3.8229-4.491-8.4163-8.5657-13.586-8.7381 0.24018-28.832-17.241-70.843-45.753-81.585-0.6367-0.82178-3.9483-1.0492-4.767-1.044z" fill="#a2cbe7" stroke="#7d8c8d" stroke-width=".076773"/>
</svg>
